<?xml version="1.0" encoding="UTF-8"?>
<svg version="1.1" xmlns="http://www.w3.org/2000/svg" width="200" height="200">
<path d="M0 0 C1.25425781 0.10183594 2.50851563 0.20367188 3.80078125 0.30859375 C4.75339844 0.39238281 5.70601563 0.47617187 6.6875 0.5625 C6.0275 1.2225 5.3675 1.8825 4.6875 2.5625 C7.60515 4.5076 9.31287285 5.01526317 12.6875 5.5625 C12.6875 7.5425 12.6875 9.5225 12.6875 11.5625 C13.43 11.315 14.1725 11.0675 14.9375 10.8125 C17.6875 10.5625 17.6875 10.5625 19.9375 12.375 C21.6875 14.5625 21.6875 14.5625 22.6875 16.5625 C23.6775 16.995625 23.6775 16.995625 24.6875 17.4375 C25.6775 17.994375 25.6775 17.994375 26.6875 18.5625 C27.03092449 19.89326989 27.36369874 21.22681979 27.6875 22.5625 C28.368125 23.01625 29.04875 23.47 29.75 23.9375 C30.389375 24.47375 31.02875 25.01 31.6875 25.5625 C31.9375 28.75 31.9375 28.75 31.6875 31.5625 C32.3475 31.5625 33.0075 31.5625 33.6875 31.5625 C33.82027344 32.18898437 33.95304687 32.81546875 34.08984375 33.4609375 C34.35474609 34.68683594 34.35474609 34.68683594 34.625 35.9375 C34.88603516 37.15566406 34.88603516 37.15566406 35.15234375 38.3984375 C35.61080693 40.591963 35.61080693 40.591963 36.6875 42.5625 C36.0275 42.5625 35.3675 42.5625 34.6875 42.5625 C35.368125 44.109375 35.368125 44.109375 36.0625 45.6875 C38.53167746 51.5152269 39.9447861 56.13034748 39.6875 62.5625 C40.3475 62.5625 41.0075 62.5625 41.6875 62.5625 C41.77314209 63.12235596 41.85878418 63.68221191 41.94702148 64.2590332 C42.33698061 66.79811208 42.73094516 69.33655368 43.125 71.875 C43.25970703 72.75607422 43.39441406 73.63714844 43.53320312 74.54492188 C43.66533203 75.39248047 43.79746094 76.24003906 43.93359375 77.11328125 C44.05404053 77.89356689 44.1744873 78.67385254 44.29858398 79.4777832 C44.67238611 81.74529797 44.67238611 81.74529797 45.6875 84.5625 C45.0275 85.2225 44.3675 85.8825 43.6875 86.5625 C44.03375542 89.50273673 44.48008677 92.29422135 45.0625 95.1875 C45.21460938 95.98929687 45.36671875 96.79109375 45.5234375 97.6171875 C45.90129166 99.60092187 46.29309436 101.58198997 46.6875 103.5625 C47.3475 102.9025 48.0075 102.2425 48.6875 101.5625 C50.45680509 112.46257629 50.941766 122.97702461 50.8125 134 C50.80243151 135.52147836 50.79331262 137.04296331 50.78515625 138.56445312 C50.76349182 142.2306096 50.72918449 145.89650983 50.6875 149.5625 C49.6975 149.5625 48.7075 149.5625 47.6875 149.5625 C47.6875 150.2225 47.6875 150.8825 47.6875 151.5625 C40.71170757 153.3583955 34.80528518 153.68317256 27.6875 152.5625 C26.87488903 148.34073206 26.60500899 144.41968801 26.6875 140.125 C26.73015252 135.46521221 26.53889435 131.13874461 25.6875 126.5625 C25.6875 128.5425 25.6875 130.5225 25.6875 132.5625 C21.95677852 125.80370414 19.83640782 117.46715189 19.0625 109.8125 C19.01902308 106.47975994 19.01902308 106.47975994 16.6875 104.5625 C16.6328125 102.53125 16.6328125 102.53125 16.8125 100.0625 C16.96570244 94.22378482 15.1698172 89.7709334 12.6875 84.5625 C11.08488937 91.64842304 10.66123402 97.37863817 11.6875 104.5625 C11.3575 105.2225 11.0275 105.8825 10.6875 106.5625 C11.21033089 108.35555534 11.21033089 108.35555534 12.0625 110.375 C13.90721919 115.50014745 14.16999293 120.42708955 14.37890625 125.83984375 C14.41766785 128.70798284 14.41766785 128.70798284 16.6875 130.5625 C17.56439885 133.86440308 18.08325448 137.19598923 18.6875 140.5625 C19.0175 133.9625 19.3475 127.3625 19.6875 120.5625 C24.1132402 124.9882402 23.8125 132.74095891 23.8125 138.6875 C23.78098587 140.31272859 23.7430941 141.93791685 23.6875 143.5625 C23.0275 143.5625 22.3675 143.5625 21.6875 143.5625 C21.6875 146.8625 21.6875 150.1625 21.6875 153.5625 C20.4190625 153.005625 20.4190625 153.005625 19.125 152.4375 C14.96733836 151.37918613 12.6675046 152.12969834 8.6875 153.5625 C10.3375 153.5625 11.9875 153.5625 13.6875 153.5625 C13.6875 154.2225 13.6875 154.8825 13.6875 155.5625 C12.3129817 155.87711197 10.93785581 156.18906973 9.5625 156.5 C8.79679687 156.67402344 8.03109375 156.84804687 7.2421875 157.02734375 C-0.47904471 158.64478842 -7.88009069 158.74610208 -15.75 158.75 C-17.04744141 158.76224609 -18.34488281 158.77449219 -19.68164062 158.78710938 C-20.94041016 158.78904297 -22.19917969 158.79097656 -23.49609375 158.79296875 C-24.63618896 158.79707764 -25.77628418 158.80118652 -26.95092773 158.80541992 C-35.70196297 158.17303703 -35.70196297 158.17303703 -38.3125 155.5625 C-39.7975 155.376875 -39.7975 155.376875 -41.3125 155.1875 C-45.85270589 154.61171505 -50.02323398 153.10897006 -54.3125 151.5625 C-54.3125 150.9025 -54.3125 150.2425 -54.3125 149.5625 C-55.6325 149.2325 -56.9525 148.9025 -58.3125 148.5625 C-58.6425 146.9125 -58.9725 145.2625 -59.3125 143.5625 C-60.3025 143.8925 -61.2925 144.2225 -62.3125 144.5625 C-62.9725 144.2325 -63.6325 143.9025 -64.3125 143.5625 C-63.9825 140.2625 -63.6525 136.9625 -63.3125 133.5625 C-64.385 133.43875 -65.4575 133.315 -66.5625 133.1875 C-71.94886364 132.28977273 -71.94886364 132.28977273 -74.3125 130.5625 C-75.72971195 126.98682851 -75.01368932 124.22032531 -74.16796875 120.546875 C-73.90306641 119.37769531 -73.63816406 118.20851563 -73.36523438 117.00390625 C-73.07970703 115.78574219 -72.79417969 114.56757813 -72.5 113.3125 C-72.08911133 111.50845703 -72.08911133 111.50845703 -71.66992188 109.66796875 C-70.56528283 104.84146434 -69.44796107 100.02891634 -68.15234375 95.25 C-67.19937264 91.06579198 -66.86484857 87.08785069 -66.6875 82.8125 C-66.64955322 82.03189209 -66.61160645 81.25128418 -66.57250977 80.44702148 C-66.28680719 74.15055141 -66.21554158 67.86479759 -66.3125 61.5625 C-66.3125 60.5725 -66.3125 59.5825 -66.3125 58.5625 C-66.46510786 56.83203591 -66.63298005 55.10287955 -66.8125 53.375 C-66.9053125 52.47394531 -66.998125 51.57289062 -67.09375 50.64453125 C-67.1659375 49.95746094 -67.238125 49.27039063 -67.3125 48.5625 C-66.3225 48.0675 -66.3225 48.0675 -65.3125 47.5625 C-62.98018171 44.03390038 -62.74089876 40.32095005 -62.25 36.1875 C-61.94177868 33.64531092 -61.62947318 31.10361269 -61.3125 28.5625 C-61.18101563 27.47453125 -61.04953125 26.3865625 -60.9140625 25.265625 C-60.09163054 21.57002163 -58.11059452 20.00186445 -55.3125 17.5625 C-55.9725 17.2325 -56.6325 16.9025 -57.3125 16.5625 C-54.04758706 13.4395398 -50.83709416 12.93429557 -46.5625 12.09765625 C-43.54845336 11.38077363 -41.01905407 10.04466056 -38.3125 8.5625 C-37.3225 8.2325 -36.3325 7.9025 -35.3125 7.5625 C-35.3125 6.2425 -35.3125 4.9225 -35.3125 3.5625 C-27.44970245 1.36091668 -21.19429457 1.83791204 -13.3125 3.5625 C-12.9825 2.5725 -12.6525 1.5825 -12.3125 0.5625 C-8.06698144 -0.53337955 -4.3532161 -0.36615836 0 0 Z M-53.3125 14.5625 C-52.9825 15.2225 -52.6525 15.8825 -52.3125 16.5625 C-51.6525 15.9025 -50.9925 15.2425 -50.3125 14.5625 C-51.3025 14.5625 -52.2925 14.5625 -53.3125 14.5625 Z M32.6875 36.5625 C33.6875 38.5625 33.6875 38.5625 33.6875 38.5625 Z M-65.3125 62.5625 C-64.3125 64.5625 -64.3125 64.5625 -64.3125 64.5625 Z M39.6875 64.5625 C40.6875 66.5625 40.6875 66.5625 40.6875 66.5625 Z M-65.3125 66.5625 C-64.3125 68.5625 -64.3125 68.5625 -64.3125 68.5625 Z M40.6875 66.5625 C40.6875 68.5425 40.6875 70.5225 40.6875 72.5625 C41.0175 72.5625 41.3475 72.5625 41.6875 72.5625 C41.6875 70.5825 41.6875 68.6025 41.6875 66.5625 C41.3575 66.5625 41.0275 66.5625 40.6875 66.5625 Z M10.6875 73.5625 C11.6875 76.5625 11.6875 76.5625 11.6875 76.5625 Z M41.6875 75.5625 C42.6875 79.5625 42.6875 79.5625 42.6875 79.5625 Z M9.6875 76.5625 C10.6875 78.5625 10.6875 78.5625 10.6875 78.5625 Z M7.6875 78.5625 C7.6875 82.1925 7.6875 85.8225 7.6875 89.5625 C9.90120051 87.77592243 9.90120051 87.77592243 9.8828125 85.3984375 C9.85960938 84.58632812 9.83640625 83.77421875 9.8125 82.9375 C9.79445313 82.12023437 9.77640625 81.30296875 9.7578125 80.4609375 C9.73460938 79.83445312 9.71140625 79.20796875 9.6875 78.5625 C9.0275 78.5625 8.3675 78.5625 7.6875 78.5625 Z M42.6875 81.5625 C43.6875 83.5625 43.6875 83.5625 43.6875 83.5625 Z M6.6875 95.5625 C7.0175 96.5525 7.3475 97.5425 7.6875 98.5625 C8.0175 97.5725 8.3475 96.5825 8.6875 95.5625 C8.0275 95.5625 7.3675 95.5625 6.6875 95.5625 Z M8.6875 98.5625 C8.6875 101.5625 8.6875 101.5625 8.6875 101.5625 Z M20.6875 98.5625 C20.6875 101.2025 20.6875 103.8425 20.6875 106.5625 C21.0175 106.5625 21.3475 106.5625 21.6875 106.5625 C21.6875 103.9225 21.6875 101.2825 21.6875 98.5625 C21.3575 98.5625 21.0275 98.5625 20.6875 98.5625 Z M21.6875 106.5625 C22.6875 108.5625 22.6875 108.5625 22.6875 108.5625 Z M47.6875 109.5625 C47.6875 114.8425 47.6875 120.1225 47.6875 125.5625 C48.0175 125.5625 48.3475 125.5625 48.6875 125.5625 C48.6875 120.2825 48.6875 115.0025 48.6875 109.5625 C48.3575 109.5625 48.0275 109.5625 47.6875 109.5625 Z M22.6875 116.5625 C23.3475 117.8825 24.0075 119.2025 24.6875 120.5625 C24.3575 119.2425 24.0275 117.9225 23.6875 116.5625 C23.3575 116.5625 23.0275 116.5625 22.6875 116.5625 Z M-59.3125 127.5625 C-58.3125 129.5625 -58.3125 129.5625 -58.3125 129.5625 Z M-60.3125 129.5625 C-59.3125 131.5625 -59.3125 131.5625 -59.3125 131.5625 Z M-62.3125 134.5625 C-62.3125 136.2125 -62.3125 137.8625 -62.3125 139.5625 C-61.9825 139.5625 -61.6525 139.5625 -61.3125 139.5625 C-61.3125 137.9125 -61.3125 136.2625 -61.3125 134.5625 C-61.6425 134.5625 -61.9725 134.5625 -62.3125 134.5625 Z M28.6875 148.5625 C29.6875 151.5625 29.6875 151.5625 29.6875 151.5625 Z M-0.3125 154.5625 C3.6875 155.5625 3.6875 155.5625 3.6875 155.5625 Z " fill="#D3D3D3" transform="translate(115.3125,24.4375)"/>
<path d="M0 0 C1.25425781 0.10183594 2.50851563 0.20367188 3.80078125 0.30859375 C4.75339844 0.39238281 5.70601563 0.47617187 6.6875 0.5625 C6.0275 1.2225 5.3675 1.8825 4.6875 2.5625 C5.6775 3.0575 5.6775 3.0575 6.6875 3.5625 C6.6875 4.2225 6.6875 4.8825 6.6875 5.5625 C2.64243719 6.46140285 -1.13124864 6.57751728 -5.25 6.5 C-10.05723561 6.44612065 -13.80849945 6.92468162 -18.3125 8.5625 C-18.8075 7.5725 -18.8075 7.5725 -19.3125 6.5625 C-20.7495809 6.50827053 -22.18725462 6.46960277 -23.625 6.4375 C-24.82576172 6.40269531 -24.82576172 6.40269531 -26.05078125 6.3671875 C-28.59638576 6.40432678 -28.59638576 6.40432678 -31.3125 8.5625 C-30.81363281 8.96210937 -30.31476563 9.36171875 -29.80078125 9.7734375 C-28.3125 11.5625 -28.3125 11.5625 -28.16796875 13.7890625 C-28.27753906 14.58054687 -28.38710937 15.37203125 -28.5 16.1875 C-28.64501953 17.38246094 -28.64501953 17.38246094 -28.79296875 18.6015625 C-28.96441406 19.24867187 -29.13585937 19.89578125 -29.3125 20.5625 C-30.3025 21.0575 -30.3025 21.0575 -31.3125 21.5625 C-32.16960487 23.32925885 -32.16960487 23.32925885 -32.9375 25.5625 C-34.25300579 29.03383468 -35.68633393 32.39393665 -37.31640625 35.7265625 C-37.67460449 36.46132813 -38.03280273 37.19609375 -38.40185547 37.953125 C-39.11955134 39.41340793 -39.84609402 40.86938484 -40.58251953 42.3203125 C-43.53183198 48.35690046 -44.7673519 53.80118504 -43.875 60.5625 C-42.45681837 71.41066855 -43.29246807 82.6013774 -43.75 93.5 C-43.78915527 94.47799561 -43.82831055 95.45599121 -43.86865234 96.46362305 C-43.91070801 97.37152588 -43.95276367 98.27942871 -43.99609375 99.21484375 C-44.03275146 100.02945068 -44.06940918 100.84405762 -44.10717773 101.68334961 C-44.3125 103.5625 -44.3125 103.5625 -45.3125 104.5625 C-45.27245895 106.06557931 -45.15095342 107.56648404 -45 109.0625 C-44.85304688 110.53783203 -44.85304688 110.53783203 -44.703125 112.04296875 C-44.41357587 114.65180643 -44.11202653 117.25753022 -43.796875 119.86328125 C-43.70704346 120.60835938 -43.61721191 121.3534375 -43.5246582 122.12109375 C-43.34482589 123.59683766 -43.16121348 125.07212702 -42.97338867 126.546875 C-42.47636327 130.57939838 -42.21683972 134.50012693 -42.3125 138.5625 C-41.3225 138.8925 -40.3325 139.2225 -39.3125 139.5625 C-38.18387825 144.92345333 -38.21561779 150.11556686 -38.3125 155.5625 C-43.96270618 154.96141424 -48.97414461 153.48721317 -54.3125 151.5625 C-54.3125 150.9025 -54.3125 150.2425 -54.3125 149.5625 C-55.6325 149.2325 -56.9525 148.9025 -58.3125 148.5625 C-58.6425 146.9125 -58.9725 145.2625 -59.3125 143.5625 C-60.3025 143.8925 -61.2925 144.2225 -62.3125 144.5625 C-62.9725 144.2325 -63.6325 143.9025 -64.3125 143.5625 C-63.9825 140.2625 -63.6525 136.9625 -63.3125 133.5625 C-64.385 133.43875 -65.4575 133.315 -66.5625 133.1875 C-71.94886364 132.28977273 -71.94886364 132.28977273 -74.3125 130.5625 C-75.72971195 126.98682851 -75.01368932 124.22032531 -74.16796875 120.546875 C-73.90306641 119.37769531 -73.63816406 118.20851563 -73.36523438 117.00390625 C-73.07970703 115.78574219 -72.79417969 114.56757813 -72.5 113.3125 C-72.08911133 111.50845703 -72.08911133 111.50845703 -71.66992188 109.66796875 C-70.56528283 104.84146434 -69.44796107 100.02891634 -68.15234375 95.25 C-67.19937264 91.06579198 -66.86484857 87.08785069 -66.6875 82.8125 C-66.64955322 82.03189209 -66.61160645 81.25128418 -66.57250977 80.44702148 C-66.28680719 74.15055141 -66.21554158 67.86479759 -66.3125 61.5625 C-66.3125 60.5725 -66.3125 59.5825 -66.3125 58.5625 C-66.46510786 56.83203591 -66.63298005 55.10287955 -66.8125 53.375 C-66.9053125 52.47394531 -66.998125 51.57289062 -67.09375 50.64453125 C-67.1659375 49.95746094 -67.238125 49.27039063 -67.3125 48.5625 C-66.3225 48.0675 -66.3225 48.0675 -65.3125 47.5625 C-62.98018171 44.03390038 -62.74089876 40.32095005 -62.25 36.1875 C-61.94177868 33.64531092 -61.62947318 31.10361269 -61.3125 28.5625 C-61.18101563 27.47453125 -61.04953125 26.3865625 -60.9140625 25.265625 C-60.09163054 21.57002163 -58.11059452 20.00186445 -55.3125 17.5625 C-55.9725 17.2325 -56.6325 16.9025 -57.3125 16.5625 C-54.04758706 13.4395398 -50.83709416 12.93429557 -46.5625 12.09765625 C-43.54845336 11.38077363 -41.01905407 10.04466056 -38.3125 8.5625 C-37.3225 8.2325 -36.3325 7.9025 -35.3125 7.5625 C-35.3125 6.2425 -35.3125 4.9225 -35.3125 3.5625 C-27.44970245 1.36091668 -21.19429457 1.83791204 -13.3125 3.5625 C-12.9825 2.5725 -12.6525 1.5825 -12.3125 0.5625 C-8.06698144 -0.53337955 -4.3532161 -0.36615836 0 0 Z M-53.3125 14.5625 C-52.9825 15.2225 -52.6525 15.8825 -52.3125 16.5625 C-51.6525 15.9025 -50.9925 15.2425 -50.3125 14.5625 C-51.3025 14.5625 -52.2925 14.5625 -53.3125 14.5625 Z M-65.3125 62.5625 C-64.3125 64.5625 -64.3125 64.5625 -64.3125 64.5625 Z M-65.3125 66.5625 C-64.3125 68.5625 -64.3125 68.5625 -64.3125 68.5625 Z M-59.3125 127.5625 C-58.3125 129.5625 -58.3125 129.5625 -58.3125 129.5625 Z M-60.3125 129.5625 C-59.3125 131.5625 -59.3125 131.5625 -59.3125 131.5625 Z M-62.3125 134.5625 C-62.3125 136.2125 -62.3125 137.8625 -62.3125 139.5625 C-61.9825 139.5625 -61.6525 139.5625 -61.3125 139.5625 C-61.3125 137.9125 -61.3125 136.2625 -61.3125 134.5625 C-61.6425 134.5625 -61.9725 134.5625 -62.3125 134.5625 Z " fill="#E1E1E1" transform="translate(115.3125,24.4375)"/>
<path d="M0 0 C0.33 0 0.66 0 1 0 C1.16167665 10.94011976 1.16167665 10.94011976 0.4375 15.6875 C-0.04673086 19.35381934 0.29319387 22.44710951 0.84375 26.08203125 C1 28 1 28 0 30 C0.60760482 32.3494053 1.27129528 34.68529088 2 37 C-0.53533688 39.02168422 -2.99772238 40.74861283 -6 42 C-10.60452563 40.84886859 -14.31194629 38.9783195 -17 35 C-17.32281509 32.24284163 -17.18619952 29.79299285 -17 27 C-16.34 27 -15.68 27 -15 27 C-15 25.35 -15 23.7 -15 22 C-12.03 23.98 -9.06 25.96 -6 28 C-5.67 26.68 -5.34 25.36 -5 24 C-4.34 23.01 -3.68 22.02 -3 21 C-2.83300768 17.87478167 -2.83300768 17.87478167 -3 15 C-2.34 15 -1.68 15 -1 15 C-1.01160156 14.08476563 -1.02320312 13.16953125 -1.03515625 12.2265625 C-1.04417969 11.03804687 -1.05320312 9.84953125 -1.0625 8.625 C-1.07410156 7.44164063 -1.08570312 6.25828125 -1.09765625 5.0390625 C-1 2 -1 2 0 0 Z M-2 22 C-2 25 -2 25 -2 25 Z " fill="#C0C0C0" transform="translate(126,101)"/>
<path d="M0 0 C2 1 2 1 2.62768555 2.72436523 C3.05664434 5.34621761 3.043093 7.75398798 2.95703125 10.41015625 C2.7037827 21.61767928 2.71525514 32.06334409 5.42797852 42.97412109 C7.75254236 52.50203966 8.31758531 62.23952816 9 72 C7.515 72.495 7.515 72.495 6 73 C5.90203125 71.94039063 5.8040625 70.88078125 5.703125 69.7890625 C5.55305727 68.40093603 5.40196208 67.01292037 5.25 65.625 C5.1571875 64.57699219 5.1571875 64.57699219 5.0625 63.5078125 C4.83881747 61.21636218 4.83881747 61.21636218 4 58 C2.06119892 56.44280462 2.06119892 56.44280462 0 56 C0.66 56 1.32 56 2 56 C1.87882812 55.17798096 1.75765625 54.35596191 1.6328125 53.5090332 C1.18269457 50.44368679 0.73578737 47.3778939 0.29101562 44.31176758 C0.003762 42.33834479 -0.28715735 40.36545672 -0.578125 38.39257812 C-0.75859375 37.14541016 -0.9390625 35.89824219 -1.125 34.61328125 C-1.29257813 33.46641846 -1.46015625 32.31955566 -1.6328125 31.13793945 C-1.95617152 28.37455287 -2.15139837 25.776583 -2 23 C-1.67 22.67 -1.34 22.34 -1 22 C-0.84285346 20.36743242 -0.74914586 18.72864662 -0.68359375 17.08984375 C-0.62075195 15.60581055 -0.62075195 15.60581055 -0.55664062 14.09179688 C-0.49766602 12.53041992 -0.49766602 12.53041992 -0.4375 10.9375 C-0.39431641 9.89271484 -0.35113281 8.84792969 -0.30664062 7.77148438 C-0.20018775 5.18113116 -0.0981724 2.59067814 0 0 Z " fill="#C6C6C6" transform="translate(71,106)"/>
<path d="M0 0 C1.60332791 -0.08121924 3.20784026 -0.13929134 4.8125 -0.1875 C6.15248047 -0.23970703 6.15248047 -0.23970703 7.51953125 -0.29296875 C10 0 10 0 11.76171875 1.35546875 C13.31659621 3.42046373 14.04248849 5.60622122 15 8 C16.03959519 9.87359395 16.03959519 9.87359395 18 11 C19.99850562 11.19340377 21.99704958 11.38646322 23.99609375 11.57421875 C27.46500692 12.31127827 28.96383684 14.22341387 31 17 C31.8125 20.3125 31.8125 20.3125 32 23 C27.03450181 22.06415223 23.86341137 19.0907291 20 16 C19.36191406 15.51015625 18.72382812 15.0203125 18.06640625 14.515625 C13.82484379 11.12237504 11.35882791 7.90636205 9 3 C9 2.34 9 1.68 9 1 C6.03 1 3.06 1 0 1 C0 0.67 0 0.34 0 0 Z " fill="#AAAAAA" transform="translate(85,128)"/>
<path d="M0 0 C0.99 0 1.98 0 3 0 C4.88667244 2.83000865 5.33227962 3.92567912 5.81640625 7.125 C5.94080078 7.91390625 6.06519531 8.7028125 6.19335938 9.515625 C6.37608398 10.74539062 6.37608398 10.74539062 6.5625 12 C6.81166599 13.6253289 7.06288568 15.25034463 7.31640625 16.875 C7.47798218 17.95394531 7.47798218 17.95394531 7.64282227 19.0546875 C7.99093874 21.20565818 7.99093874 21.20565818 9 24 C8.67 24.66 8.34 25.32 8 26 C8.66 26 9.32 26 10 26 C10.33 28.31 10.66 30.62 11 33 C10.34 32.67 9.68 32.34 9 32 C8.34 32.66 7.68 33.32 7 34 C6.34 33.67 5.68 33.34 5 33 C5 28.71 5 24.42 5 20 C4.34 20 3.68 20 3 20 C2.49685437 17.22970414 1.99736162 14.4588348 1.5 11.6875 C1.35691406 10.90181641 1.21382813 10.11613281 1.06640625 9.30664062 C0.93105469 8.54931641 0.79570313 7.79199219 0.65625 7.01171875 C0.53056641 6.31522217 0.40488281 5.61872559 0.27539062 4.90112305 C0 3 0 3 0 0 Z " fill="#909090" transform="translate(118,67)"/>
<path d="M0 0 C2 1 2 1 2.62109375 2.71118164 C3.06471532 5.3909189 3.09448239 7.90414556 3.0625 10.62109375 C3.05412109 11.71631348 3.04574219 12.8115332 3.03710938 13.93994141 C3.02486328 15.09413574 3.01261719 16.24833008 3 17.4375 C2.945975 26.3503968 2.99492517 35.13380417 4 44 C1.83968262 40.41459931 1.3417404 36.77363486 0.875 32.6875 C0.79008301 31.9663501 0.70516602 31.2452002 0.61767578 30.50219727 C-0.43735459 20.37114609 -0.1752827 10.17044133 0 0 Z " fill="#AFAFAF" transform="translate(71,106)"/>
<path d="M0 0 C0.77601562 -0.00515625 1.55203125 -0.0103125 2.3515625 -0.015625 C4.375 0.25 4.375 0.25 6.375 2.25 C5.83230469 2.518125 5.28960937 2.78625 4.73046875 3.0625 C0.57062099 5.34104724 -1.96318654 6.99859279 -3.625 11.5625 C-3.955 12.779375 -4.285 13.99625 -4.625 15.25 C-4.955 15.25 -5.285 15.25 -5.625 15.25 C-5.59019531 14.64671875 -5.55539063 14.0434375 -5.51953125 13.421875 C-5.2735551 8.32474512 -5.2735551 8.32474512 -7.125 3.6875 C-7.62 3.213125 -8.115 2.73875 -8.625 2.25 C-5.63092177 0.52737965 -3.44750407 -0.02306023 0 0 Z " fill="#989898" transform="translate(91.625,29.75)"/>
<path d="M0 0 C4.4257402 4.4257402 4.125 12.17845891 4.125 18.125 C4.09348587 19.75022859 4.0555941 21.37541685 4 23 C3.01 22.67 2.02 22.34 1 22 C-0.05086948 19.23633753 -0.11860688 16.60496259 -0.09765625 13.671875 C-0.09282227 12.47304687 -0.09282227 12.47304687 -0.08789062 11.25 C-0.07951172 10.425 -0.07113281 9.6 -0.0625 8.75 C-0.05798828 7.90953125 -0.05347656 7.0690625 -0.04882812 6.203125 C-0.03707961 4.13538599 -0.01914522 2.06768376 0 0 Z " fill="#000000" transform="translate(135,145)"/>
<path d="M0 0 C0.33 0 0.66 0 1 0 C1.16167665 10.94011976 1.16167665 10.94011976 0.4375 15.6875 C-0.12252095 19.92765861 0.37951008 23.79021455 1 28 C-0.32 28.33 -1.64 28.66 -3 29 C-3 28.34 -3 27.68 -3 27 C-3.99 26.67 -4.98 26.34 -6 26 C-5.505 25.29875 -5.01 24.5975 -4.5 23.875 C-2.8063319 20.62880281 -2.74837685 18.60659844 -3 15 C-2.34 15 -1.68 15 -1 15 C-1.01160156 14.08476563 -1.02320312 13.16953125 -1.03515625 12.2265625 C-1.04417969 11.03804687 -1.05320312 9.84953125 -1.0625 8.625 C-1.07410156 7.44164063 -1.08570312 6.25828125 -1.09765625 5.0390625 C-1 2 -1 2 0 0 Z M-2 22 C-2 25 -2 25 -2 25 Z " fill="#717171" transform="translate(126,101)"/>
<path d="M0 0 C7.1610888 -0.60687193 7.1610888 -0.60687193 10.9375 2.125 C13.16190154 5.22568093 13.73701637 7.2305679 14 11 C10.00544473 10.38545304 7.25533664 8.29353263 4 6 C5.32 5.67 6.64 5.34 8 5 C8 4.01 8 3.02 8 2 C5.36 1.67 2.72 1.34 0 1 C0 0.67 0 0.34 0 0 Z " fill="#BDBDBD" transform="translate(103,140)"/>
<path d="M0 0 C0.99 0.66 1.98 1.32 3 2 C2.31035156 2.04898438 1.62070313 2.09796875 0.91015625 2.1484375 C-4.59186458 2.58618401 -9.79000508 3.26349401 -15.125 4.6953125 C-17 5 -17 5 -20 4 C-13.40188345 -0.06037942 -7.72409859 -0.98410738 0 0 Z " fill="#A7A7A7" transform="translate(116,30)"/>
<path d="M0 0 C1.68407396 0.72565788 3.33754139 1.52151262 4.984375 2.328125 C2.04050877 3.80005812 -0.38952536 3.17748673 -3.640625 2.890625 C-4.82914063 2.78878906 -6.01765625 2.68695312 -7.2421875 2.58203125 C-8.15742187 2.49824219 -9.07265625 2.41445313 -10.015625 2.328125 C-10.675625 3.648125 -11.335625 4.968125 -12.015625 6.328125 C-13.665625 6.328125 -15.315625 6.328125 -17.015625 6.328125 C-16.355625 5.998125 -15.695625 5.668125 -15.015625 5.328125 C-15.015625 4.008125 -15.015625 2.688125 -15.015625 1.328125 C-14.396875 1.18375 -13.778125 1.039375 -13.140625 0.890625 C-4.32710041 -1.4423668 -4.32710041 -1.4423668 0 0 Z " fill="#F3F3F3" transform="translate(95.015625,26.671875)"/>
<path d="M0 0 C0.33 0 0.66 0 1 0 C3.12888539 7.67202093 4.54593375 15.04601192 5 23 C4.01 23.33 3.02 23.66 2 24 C1.46905569 20.37640521 0.95196512 16.75096814 0.4375 13.125 C0.21030273 11.57619141 0.21030273 11.57619141 -0.02148438 9.99609375 C-0.16005859 9.00996094 -0.29863281 8.02382812 -0.44140625 7.0078125 C-0.57232666 6.09660645 -0.70324707 5.18540039 -0.83813477 4.24658203 C-1 2 -1 2 0 0 Z " fill="#ADADAD" transform="translate(75,155)"/>
<path d="M0 0 C0 1.98 0 3.96 0 6 C-0.66 5.67 -1.32 5.34 -2 5 C-2 5.66 -2 6.32 -2 7 C-1.34 7.33 -0.68 7.66 0 8 C0 11.63 0 15.26 0 19 C-1.94068531 15.11862939 -2.76441927 11.97466903 -3.625 7.75 C-3.88539063 6.48671875 -4.14578125 5.2234375 -4.4140625 3.921875 C-4.60742188 2.95765625 -4.80078125 1.9934375 -5 1 C-1.125 0 -1.125 0 0 0 Z " fill="#9A9A9A" transform="translate(141,138)"/>
<path d="M0 0 C0.66 0.99 1.32 1.98 2 3 C1.67 3.66 1.34 4.32 1 5 C1.66 5 2.32 5 3 5 C3.33 7.31 3.66 9.62 4 12 C3.34 11.67 2.68 11.34 2 11 C1.34 11.66 0.68 12.32 0 13 C-0.66 12.67 -1.32 12.34 -2 12 C-2 9.03 -2 6.06 -2 3 C-1.34 3 -0.68 3 0 3 C0 2.01 0 1.02 0 0 Z " fill="#AAAAAA" transform="translate(125,88)"/>
<path d="M0 0 C1.32 0.33 2.64 0.66 4 1 C5.25 8.625 5.25 8.625 3 12 C-0.42857143 4.71428571 -0.42857143 4.71428571 0 0 Z " fill="#B5B5B5" transform="translate(117,58)"/>
<path d="M0 0 C0.33 0 0.66 0 1 0 C2.22899346 6.06815522 3.27560214 11.79895188 3 18 C-0.08397243 14.91602757 -0.94668904 12.97736763 -1.1875 8.5625 C-1.03043367 5.57823979 -0.70200829 2.89578419 0 0 Z " fill="#BCBCBC" transform="translate(75,145)"/>
<path d="M0 0 C0.33 0 0.66 0 1 0 C1 3.63 1 7.26 1 11 C-0.65 10.67 -2.3 10.34 -4 10 C-3.67 9.236875 -3.34 8.47375 -3 7.6875 C-1.82563314 5.00930865 -1.82563314 5.00930865 -2 2 C-1.34 2 -0.68 2 0 2 C0 1.34 0 0.68 0 0 Z " fill="#A7A7A7" transform="translate(136,167)"/>
<path d="M0 0 C0.33 0 0.66 0 1 0 C0.85780436 2.20857055 0.71108153 4.41684987 0.5625 6.625 C0.48128906 7.85476562 0.40007813 9.08453125 0.31640625 10.3515625 C0.03336056 13.61532388 -0.41038953 16.77943859 -1 20 C-1.33 20 -1.66 20 -2 20 C-2 14.06 -2 8.12 -2 2 C-1.34 2 -0.68 2 0 2 C0 1.34 0 0.68 0 0 Z " fill="#EEEEEE" transform="translate(51,91)"/>
<path d="M0 0 C-0.33 1.32 -0.66 2.64 -1 4 C-3.76276177 3.47731534 -6.3260876 2.89130413 -9 2 C-9 1.34 -9 0.68 -9 0 C-5.67465243 -1.10844919 -3.37817425 -0.84454356 0 0 Z " fill="#C2C2C2" transform="translate(128,30)"/>
<path d="M0 0 C3.3 0 6.6 0 10 0 C10 0.66 10 1.32 10 2 C7.59454362 3.20272819 6.05003047 3.10071472 3.375 3.0625 C2.14910156 3.04896484 2.14910156 3.04896484 0.8984375 3.03515625 C-0.04128906 3.01775391 -0.04128906 3.01775391 -1 3 C-0.67 2.01 -0.34 1.02 0 0 Z " fill="#858585" transform="translate(119,178)"/>
<path d="M0 0 C0.99 0 1.98 0 3 0 C5 3 5 3 4.625 5.1875 C4.41875 5.785625 4.2125 6.38375 4 7 C3.67 6.67 3.34 6.34 3 6 C3 7.98 3 9.96 3 12 C2.67 12 2.34 12 2 12 C1.34 8.04 0.68 4.08 0 0 Z " fill="#9C9C9C" transform="translate(118,67)"/>
<path d="M0 0 C0.33 0.99 0.66 1.98 1 3 C0.01 3.495 0.01 3.495 -1 4 C-1.90343684 5.88263881 -1.90343684 5.88263881 -2.625 8.0625 C-2.88539062 8.79597656 -3.14578125 9.52945313 -3.4140625 10.28515625 C-3.60742188 10.85105469 -3.80078125 11.41695312 -4 12 C-4.33 12 -4.66 12 -5 12 C-4.10164835 4.21428571 -4.10164835 4.21428571 -2 1 C-1.34 0.67 -0.68 0.34 0 0 Z " fill="#E6E6E6" transform="translate(85,42)"/>
<path d="M0 0 C0.99 0.495 0.99 0.495 2 1 C2.4140625 3.06640625 2.4140625 3.06640625 2.625 5.5625 C2.69976562 6.38878906 2.77453125 7.21507812 2.8515625 8.06640625 C2.92503906 9.02353516 2.92503906 9.02353516 3 10 C2.01 9.34 1.02 8.68 0 8 C-0.40843923 5.28796348 -0.13336867 2.7562858 0 0 Z " fill="#000000" transform="translate(132,121)"/>
<path d="M0 0 C2.31 0 4.62 0 7 0 C7.33 0.66 7.66 1.32 8 2 C4.7 2.66 1.4 3.32 -2 4 C-1.34 2.68 -0.68 1.36 0 0 Z " fill="#BFBFBF" transform="translate(85,28)"/>
<path d="M0 0 C1.60332791 -0.08121924 3.20784026 -0.13929134 4.8125 -0.1875 C6.15248047 -0.23970703 6.15248047 -0.23970703 7.51953125 -0.29296875 C10.41647515 0.04918998 11.22555028 0.75393573 13 3 C12.67 3.66 12.34 4.32 12 5 C11.34 5 10.68 5 10 5 C9.67 3.68 9.34 2.36 9 1 C6.03 1 3.06 1 0 1 C0 0.67 0 0.34 0 0 Z " fill="#BBBBBB" transform="translate(85,128)"/>
<path d="M0 0 C0.33 0 0.66 0 1 0 C1 2.97 1 5.94 1 9 C0.01 9 -0.98 9 -2 9 C-1.51421457 5.87709365 -1.0013988 3.00419641 0 0 Z " fill="#CFCFCF" transform="translate(70,109)"/>
<path d="M0 0 C0.98120464 3.05263664 0.98120464 4.94736336 0 8 C-0.99 7.67 -1.98 7.34 -3 7 C-3 5.35 -3 3.7 -3 2 C-2.01 2 -1.02 2 0 2 C0 1.34 0 0.68 0 0 Z " fill="#B5B5B5" transform="translate(124,112)"/>
<path d="M0 0 C1.485 0.99 1.485 0.99 3 2 C3.1875 4.625 3.1875 4.625 3 7 C2.67 6.34 2.34 5.68 2 5 C1.01 5 0.02 5 -1 5 C-0.67 3.35 -0.34 1.7 0 0 Z " fill="#D9D9D9" transform="translate(129,153)"/>
<path d="M0 0 C0.33 0 0.66 0 1 0 C1.61528766 5.07612318 -0.38341651 7.82982006 -3 12 C-4.21386936 8.35839192 -3.6674695 7.66834531 -2.0625 4.3125 C-1.49208984 3.10013672 -1.49208984 3.10013672 -0.91015625 1.86328125 C-0.60980469 1.24839844 -0.30945313 0.63351563 0 0 Z " fill="#D8D8D8" transform="translate(79,49)"/>
<path d="M0 0 C2.31 0 4.62 0 7 0 C7 0.33 7 0.66 7 1 C4.69 1 2.38 1 0 1 C0 0.67 0 0.34 0 0 Z " fill="#BBBBBB" transform="translate(146,178)"/>
<path d="M0 0 C1 4 1 4 1 4 Z " fill="#D1D1D1" transform="translate(127,129)"/>
<path d="M0 0 C0.66 0 1.32 0 2 0 C1.67 0.66 1.34 1.32 1 2 C0.67 1.34 0.34 0.68 0 0 Z " fill="#CFCFCF" transform="translate(130,152)"/>
<path d="" fill="#E8E8E8" transform="translate(0,0)"/>
<path d="" fill="#E9E9E9" transform="translate(0,0)"/>
<path d="" fill="#D7D7D7" transform="translate(0,0)"/>
<path d="" fill="#F5F5F5" transform="translate(0,0)"/>
<path d="" fill="#EAEAEA" transform="translate(0,0)"/>
<path d="" fill="#FAFAFA" transform="translate(0,0)"/>
</svg>
