<?xml version="1.0" encoding="UTF-8"?>
<svg version="1.1" xmlns="http://www.w3.org/2000/svg" width="200" height="202">
<path d="M0 0 C3.5624827 -0.02913821 7.12493454 -0.04684529 10.6875 -0.0625 C12.19860352 -0.07506836 12.19860352 -0.07506836 13.74023438 -0.08789062 C14.71669922 -0.09111328 15.69316406 -0.09433594 16.69921875 -0.09765625 C17.59471436 -0.10289307 18.49020996 -0.10812988 19.4128418 -0.11352539 C22.96836846 0.04249234 25.97555977 0.18751292 28.8125 2.4375 C30 4 30 4 30 6 C32.475 5.505 32.475 5.505 35 5 C35 5.66 35 6.32 35 7 C36.3303125 7.12375 36.3303125 7.12375 37.6875 7.25 C41.51091806 8.11567956 42.97515058 9.56245711 46 12 C48.01123797 13.13883085 50.05462461 14.22259567 52.125 15.25 C53.67574219 16.03117187 53.67574219 16.03117187 55.2578125 16.828125 C57.9627599 18.19648527 57.9627599 18.19648527 61 18 C61 18.66 61 19.32 61 20 C61.99 20 62.98 20 64 20 C65.5 22.5 65.5 22.5 67 25 C67.99 25 68.98 25 70 25 C71.42619661 27.66223367 72.32888892 30.06388901 73 33 C73.98275295 36.47239377 74.97878544 39.93261258 76.0625 43.375 C77.14885363 47.57556736 77.62831135 51.68645542 78 56 C78.66 56 79.32 56 80 56 C80 59.63 80 63.26 80 67 C80.66 67.33 81.32 67.66 82 68 C82.63272365 70.88812611 83.13674304 73.70476195 83.5625 76.625 C83.75646362 77.89887573 83.75646362 77.89887573 83.9543457 79.19848633 C85.06333133 86.78400476 85.66807332 94.34279493 86 102 C86.66 102 87.32 102 88 102 C89.01973129 105.05919388 89.11533602 107.12418025 89.09765625 110.32421875 C89.09443359 111.35224609 89.09121094 112.38027344 89.08789062 113.43945312 C89.07951172 114.51130859 89.07113281 115.58316406 89.0625 116.6875 C89.05798828 117.77095703 89.05347656 118.85441406 89.04882812 119.97070312 C89.03703743 122.64719085 89.02058063 125.32356777 89 128 C89.66 128 90.32 128 91 128 C91.29341888 133.67276511 91.00559652 136.99067246 88 142 C88.99 142 89.98 142 91 142 C91 143.32 91 144.64 91 146 C90.01 146 89.02 146 88 146 C87.67 146.66 87.34 147.32 87 148 C86.34 148 85.68 148 85 148 C84.67 148.33 84.34 148.66 84 149 C79.85982664 149.40589935 77.45102442 149.22125726 73.6875 147.375 C70.63611896 144.67843071 69.93380414 142.90499913 69 139 C68.04134491 136.66924071 68.04134491 136.66924071 65 135 C64.34685026 132.47823644 64.05351842 129.99240239 63.72265625 127.41015625 C63.24710531 124.83301328 63.24710531 124.83301328 60.94921875 123.7890625 C59 122 59 122 58.67407227 119.9909668 C58.60594053 117.42124323 58.65228676 114.88123086 58.75 112.3125 C58.76804687 111.41982422 58.78609375 110.52714844 58.8046875 109.60742188 C58.85182241 107.40386496 58.91759343 105.20247399 59 103 C57.35 103 55.7 103 54 103 C54.04640625 104.31355469 54.0928125 105.62710938 54.140625 106.98046875 C54.17815266 108.71612304 54.21455175 110.45180199 54.25 112.1875 C54.28351563 113.05181641 54.31703125 113.91613281 54.3515625 114.80664062 C54.43747146 120.41220048 53.81461038 122.70099465 50 127 C49.72899391 129.6786385 49.72899391 129.6786385 50.25 132.3125 C50.5 133.875 50.75 135.4375 51 137 C36.12999199 139.67214285 21.13601776 139.23580624 6.08764648 139.1373291 C2.57408072 139.11657889 -0.93951515 139.10767411 -4.453125 139.09765625 C-11.30215554 139.07644119 -18.15106905 139.04247354 -25 139 C-25 138.34 -25 137.68 -25 137 C-25.66 137 -26.32 137 -27 137 C-27 137.66 -27 138.32 -27 139 C-27.66 139 -28.32 139 -29 139 C-29.08138426 136.12442297 -29.14067851 133.25117738 -29.1875 130.375 C-29.21263672 129.56675781 -29.23777344 128.75851563 -29.26367188 127.92578125 C-29.32589961 122.82310684 -28.75491551 119.46860312 -26 115 C-27.32 114.67 -28.64 114.34 -30 114 C-30.87890625 107.84765625 -30.87890625 107.84765625 -31 106 C-30.67 105.67 -30.34 105.34 -30 105 C-29.91330568 103.5112814 -29.89296506 102.018555 -29.90234375 100.52734375 C-29.90556641 99.62822266 -29.90878906 98.72910156 -29.91210938 97.80273438 C-29.92048828 96.85720703 -29.92886719 95.91167969 -29.9375 94.9375 C-29.94201172 93.98810547 -29.94652344 93.03871094 -29.95117188 92.06054688 C-29.9629989 89.70696935 -29.97947975 87.35351523 -30 85 C-30.66 85 -31.32 85 -32 85 C-32.87557031 91.54311329 -33.3548854 96.76647981 -31 103 C-31.66 103 -32.32 103 -33 103 C-33.66 107.29 -34.32 111.58 -35 116 C-35.66 116 -36.32 116 -37 116 C-37.12375 116.556875 -37.2475 117.11375 -37.375 117.6875 C-38.05976855 120.22114364 -38.99133763 122.57921032 -40 125 C-39.505 125.495 -39.505 125.495 -39 126 C-38.5 128.5 -38.5 128.5 -39 132 C-40.61376669 134.40375195 -42.37828045 136.56628669 -44.2734375 138.75390625 C-46.07318215 141.09520303 -46.97902077 143.24658996 -48 146 C-49.86342722 148.18750152 -51.5644384 149.37629227 -54 151 C-56.69921875 151.1953125 -56.69921875 151.1953125 -59.6875 151.125 C-60.68136719 151.10695312 -61.67523438 151.08890625 -62.69921875 151.0703125 C-63.45847656 151.04710937 -64.21773437 151.02390625 -65 151 C-67.29612756 135.25512528 -67.29612756 135.25512528 -67 128 C-66.01 127.505 -66.01 127.505 -65 127 C-64.65557019 124.57102104 -64.43980102 122.254365 -64.3125 119.8125 C-64.22613281 118.49894531 -64.13976562 117.18539062 -64.05078125 115.83203125 C-64.00506828 112.38246052 -64.30338829 109.36782956 -65 106 C-64.01 106 -63.02 106 -62 106 C-62.08378906 105.29617187 -62.16757812 104.59234375 -62.25390625 103.8671875 C-63.08730556 95.786379 -62.77661495 88.07679552 -62 80 C-60.02 79.505 -60.02 79.505 -58 79 C-57.93941406 78.34773438 -57.87882812 77.69546875 -57.81640625 77.0234375 C-57.45547742 73.25867218 -57.09506602 69.53870744 -56.4375 65.8125 C-55.92416399 62.51248277 -55.93331478 59.33426104 -56 56 C-55.34 56.99 -54.68 57.98 -54 59 C-53.95101562 58.15695313 -53.90203125 57.31390625 -53.8515625 56.4453125 C-53.77679688 55.34960938 -53.70203125 54.25390625 -53.625 53.125 C-53.52058594 51.48917969 -53.52058594 51.48917969 -53.4140625 49.8203125 C-53 47 -53 47 -51 45 C-50.61550947 43.09255184 -50.61550947 43.09255184 -50.5 41 C-50.22222222 37.22222222 -50.22222222 37.22222222 -48 35 C-47.18818331 32.72181286 -46.53972293 30.41982471 -45.87890625 28.09375 C-45 26 -45 26 -42 24 C-42 22.68 -42 21.36 -42 20 C-41.2575 19.855625 -40.515 19.71125 -39.75 19.5625 C-38.8425 19.376875 -37.935 19.19125 -37 19 C-36.278125 18.855625 -35.55625 18.71125 -34.8125 18.5625 C-32.77343377 18.08393139 -32.77343377 18.08393139 -31 16 C-30.34 16 -29.68 16 -29 16 C-28.34 15.01 -27.68 14.02 -27 13 C-27 13.66 -27 14.32 -27 15 C-26.34 14.67 -25.68 14.34 -25 14 C-25.495 13.01 -25.495 13.01 -26 12 C-24.37604003 11.49663233 -22.75079459 10.99741024 -21.125 10.5 C-20.22007813 10.2215625 -19.31515625 9.943125 -18.3828125 9.65625 C-16 9 -16 9 -14 9 C-14.495 7.02 -14.495 7.02 -15 5 C-13.63875 5.2784375 -13.63875 5.2784375 -12.25 5.5625 C-9.3198051 5.95694931 -7.69624489 6.09847014 -5 5 C-4.67 4.34 -4.34 3.68 -4 3 C-4.66 2.67 -5.32 2.34 -6 2 C-4.02 2 -2.04 2 0 2 C0 1.34 0 0.68 0 0 Z M-60 80 C-59 82 -59 82 -59 82 Z M54 92 C53.34 95.3 52.68 98.6 52 102 C52.99 101.34 53.98 100.68 55 100 C55.36297936 98.02252878 55.36297936 98.02252878 55.1875 95.875 C55.125625 94.59625 55.06375 93.3175 55 92 C54.67 92 54.34 92 54 92 Z M56 95 C56.33 96.32 56.66 97.64 57 99 C57.33 98.34 57.66 97.68 58 97 C57.34 96.34 56.68 95.68 56 95 Z M-35 99 C-34 101 -34 101 -34 101 Z M86 103 C87 105 87 105 87 105 Z M-36 105 C-36 106.65 -36 108.3 -36 110 C-35.67 110 -35.34 110 -35 110 C-35 108.35 -35 106.7 -35 105 C-35.33 105 -35.66 105 -36 105 Z M-63 107 C-62 109 -62 109 -62 109 Z M60 107 C60 108.98 60 110.96 60 113 C60.33 113 60.66 113 61 113 C61 111.02 61 109.04 61 107 C60.67 107 60.34 107 60 107 Z M87 108 C87 110.97 87 113.94 87 117 C87.33 117 87.66 117 88 117 C88 114.03 88 111.06 88 108 C87.67 108 87.34 108 87 108 Z M-37 111 C-36 113 -36 113 -36 113 Z M61 113 C62 116 62 116 62 116 Z M-38 114 C-37 116 -37 116 -37 116 Z M51 115 C52 117 52 117 52 117 Z M51 120 C51 123 51 123 51 123 Z M87 120 C88 123 88 123 88 123 Z M-28 126 C-28 129.63 -28 133.26 -28 137 C-27.67 137 -27.34 137 -27 137 C-26.77825067 135.54364629 -26.57301302 134.08477044 -26.375 132.625 C-26.25898437 131.81289062 -26.14296875 131.00078125 -26.0234375 130.1640625 C-26.01570313 129.44992188 -26.00796875 128.73578125 -26 128 C-26.66 127.34 -27.32 126.68 -28 126 Z M-42 131 C-41 134 -41 134 -41 134 Z M-65 137 C-64 139 -64 139 -64 139 Z " fill="#DADADA" transform="translate(88,26)"/>
<path d="M0 0 C0.66 0.33 1.32 0.66 2 1 C2 1.66 2 2.32 2 3 C2.99 2.67 3.98 2.34 5 2 C5.66 4.31 6.32 6.62 7 9 C7.66 9 8.32 9 9 9 C9 12.63 9 16.26 9 20 C9.66 20.33 10.32 20.66 11 21 C11.63272365 23.88812611 12.13674304 26.70476195 12.5625 29.625 C12.75646362 30.89887573 12.75646362 30.89887573 12.9543457 32.19848633 C14.06333133 39.78400476 14.66807332 47.34279493 15 55 C15.66 55 16.32 55 17 55 C18.01973129 58.05919388 18.11533602 60.12418025 18.09765625 63.32421875 C18.09443359 64.35224609 18.09121094 65.38027344 18.08789062 66.43945312 C18.07532227 68.04723633 18.07532227 68.04723633 18.0625 69.6875 C18.05798828 70.77095703 18.05347656 71.85441406 18.04882812 72.97070312 C18.03703743 75.64719085 18.02058063 78.32356777 18 81 C18.66 81 19.32 81 20 81 C20.29341888 86.67276511 20.00559652 89.99067246 17 95 C17.99 95 18.98 95 20 95 C20 96.32 20 97.64 20 99 C19.01 99 18.02 99 17 99 C16.67 99.66 16.34 100.32 16 101 C15.34 101 14.68 101 14 101 C13.67 101.33 13.34 101.66 13 102 C8.85982664 102.40589935 6.45102442 102.22125726 2.6875 100.375 C-0.36388104 97.67843071 -1.06619586 95.90499913 -2 92 C-2.95865509 89.66924071 -2.95865509 89.66924071 -6 88 C-6.65314974 85.47823644 -6.94648158 82.99240239 -7.27734375 80.41015625 C-7.75289469 77.83301328 -7.75289469 77.83301328 -10.05078125 76.7890625 C-12 75 -12 75 -12.32592773 72.9909668 C-12.39405947 70.42124323 -12.34771324 67.88123086 -12.25 65.3125 C-12.23195312 64.41982422 -12.21390625 63.52714844 -12.1953125 62.60742188 C-12.14817759 60.40386496 -12.08240657 58.20247399 -12 56 C-13.65 56 -15.3 56 -17 56 C-17 62.27 -17 68.54 -17 75 C-19.31 74.67 -21.62 74.34 -24 74 C-24 71.36 -24 68.72 -24 66 C-23.01 65.505 -23.01 65.505 -22 65 C-21.91113816 61.80097361 -22.08941469 59.07322544 -23 56 C-22.030625 55.690625 -21.06125 55.38125 -20.0625 55.0625 C-16.85054552 53.37918483 -16.85054552 53.37918483 -16.37890625 50.796875 C-16.14627004 48.52061916 -16.00959147 46.28756601 -16 44 C-12.25 42.875 -12.25 42.875 -10 44 C-10.33 42.02 -10.66 40.04 -11 38 C-12.65 38 -14.3 38 -16 38 C-16 36.68 -16 35.36 -16 34 C-16.66 34 -17.32 34 -18 34 C-18.05420701 31.43721301 -18.09377007 28.87558517 -18.125 26.3125 C-18.15013672 25.2306543 -18.15013672 25.2306543 -18.17578125 24.12695312 C-18.22918655 18.27907247 -17.67398718 14.71690993 -13.5625 10.5 C-12.2940625 9.2625 -12.2940625 9.2625 -11 8 C-10.443125 7.071875 -9.88625 6.14375 -9.3125 5.1875 C-8.879375 4.465625 -8.44625 3.74375 -8 3 C-7.34 3 -6.68 3 -6 3 C-7.06764731 6.02500071 -8.25894376 8.38449224 -10.0625 11.0625 C-11.70988017 13.5601409 -12.55455115 15.10458245 -13 18 C-10.69 16.68 -8.38 15.36 -6 14 C-8.0745356 13.8509288 -8.0745356 13.8509288 -10 15 C-8.66932878 10.26872454 -5.80856057 7.30327896 -2.55859375 3.76953125 C-0.92943284 2.07185494 -0.92943284 2.07185494 0 0 Z M-15 48 C-14.67 49.32 -14.34 50.64 -14 52 C-13.67 51.34 -13.34 50.68 -13 50 C-13.66 49.34 -14.32 48.68 -15 48 Z M15 56 C16 58 16 58 16 58 Z M-11 60 C-11 61.98 -11 63.96 -11 66 C-10.67 66 -10.34 66 -10 66 C-10 64.02 -10 62.04 -10 60 C-10.33 60 -10.66 60 -11 60 Z M16 61 C16 63.97 16 66.94 16 70 C16.33 70 16.66 70 17 70 C17 67.03 17 64.06 17 61 C16.67 61 16.34 61 16 61 Z M-10 66 C-9 69 -9 69 -9 69 Z M-20 68 C-19 70 -19 70 -19 70 Z M16 73 C17 76 17 76 17 76 Z " fill="#D5D5D5" transform="translate(159,73)"/>
<path d="M0 0 C0.66 0.33 1.32 0.66 2 1 C-0.64 4.3 -3.28 7.6 -6 11 C-5.34 11 -4.68 11 -4 11 C-3.67 10.01 -3.34 9.02 -3 8 C-0.12890625 6.4296875 -0.12890625 6.4296875 3.4375 4.875 C4.61183594 4.35679687 5.78617188 3.83859375 6.99609375 3.3046875 C8.48302734 2.65886719 8.48302734 2.65886719 10 2 C10.66 1.67 11.32 1.34 12 1 C13.76461049 0.74425935 15.53739952 0.54314213 17.3125 0.375 C18.72982422 0.23191406 18.72982422 0.23191406 20.17578125 0.0859375 C22.96908357 0.00094075 25.29425776 0.33958204 28 1 C25.01595261 2.7032234 22.7906951 3.23036145 19.375 3.375 C12.59578529 3.95578944 6.57264253 5.84615974 1.3125 10.25 C0.549375 11.1575 -0.21375 12.065 -1 13 C-1.91652344 14.00353516 -1.91652344 14.00353516 -2.8515625 15.02734375 C-6.54516729 18.51675354 -6.54516729 18.51675354 -8 23 C-6.02 22.34 -4.04 21.68 -2 21 C-2.495 20.01 -2.495 20.01 -3 19 C-1.09598862 17.09598862 0.33425686 16.06479561 3.046875 15.80078125 C5.03233273 15.8113422 7.0169914 15.90084957 9 16 C9 16.66 9 17.32 9 18 C7.02 18.99 7.02 18.99 5 20 C6.918125 19.7834375 6.918125 19.7834375 8.875 19.5625 C10.58330849 19.37477379 12.29164325 19.18728652 14 19 C14.83917969 18.90460938 15.67835937 18.80921875 16.54296875 18.7109375 C21.72594734 18.1484437 26.78710387 17.72073771 32 18 C35.25932534 21.25932534 34.6589933 25.56691291 35 30 C20.12999199 32.67214285 5.13601776 32.23580624 -9.91235352 32.1373291 C-13.42591928 32.11657889 -16.93951515 32.10767411 -20.453125 32.09765625 C-27.30215554 32.07644119 -34.15106905 32.04247354 -41 32 C-41 31.34 -41 30.68 -41 30 C-41.66 30 -42.32 30 -43 30 C-43 30.66 -43 31.32 -43 32 C-43.66 32 -44.32 32 -45 32 C-45 26.06 -45 20.12 -45 14 C-37 15 -37 15 -34.625 17.5 C-34.08875 18.325 -33.5525 19.15 -33 20 C-29.81774461 21.59112769 -27.54194252 21.33732786 -24 21 C-17.8228372 18.55025339 -13.93536087 15.24714783 -10 10 C-8.3540349 8.31288577 -6.68762851 6.6454378 -5 5 C-4.071875 4.071875 -3.14375 3.14375 -2.1875 2.1875 C-1.465625 1.465625 -0.74375 0.74375 0 0 Z M-44 19 C-44 22.63 -44 26.26 -44 30 C-43.67 30 -43.34 30 -43 30 C-42.77825067 28.54364629 -42.57301302 27.08477044 -42.375 25.625 C-42.25898437 24.81289062 -42.14296875 24.00078125 -42.0234375 23.1640625 C-42.01570313 22.44992188 -42.00796875 21.73578125 -42 21 C-42.66 20.34 -43.32 19.68 -44 19 Z " fill="#D9D9D9" transform="translate(104,133)"/>
<path d="M0 0 C0.99 0.33 1.98 0.66 3 1 C3.28875 2.134375 3.5775 3.26875 3.875 4.4375 C4.60408023 8.17658301 4.60408023 8.17658301 7.625 9.4375 C8.40875 9.623125 9.1925 9.80875 10 10 C8.765625 11.9921875 8.765625 11.9921875 7 14 C5.046875 14.3203125 5.046875 14.3203125 2.75 14.125 C-1.836265 13.92325814 -6.08076944 14.3378666 -10.625 15 C-15.83656473 15.74978945 -20.74384519 16.21453693 -26 16 C-23.36095629 14.58622659 -20.92879371 13.62759865 -18 13 C-18 12.34 -18 11.68 -18 11 C-23.3907997 11.23004734 -23.3907997 11.23004734 -28 13.5625 C-28.33 14.036875 -28.66 14.51125 -29 15 C-28.34 15.66 -27.68 16.32 -27 17 C-30.3 17.66 -33.6 18.32 -37 19 C-34.68571266 13.41848347 -31.29231335 10.06484053 -27 6 C-26.319375 5.236875 -25.63875 4.47375 -24.9375 3.6875 C-20.46401516 -0.20876099 -15.67992071 -0.10922924 -10 0 C-6.78455056 -1.60772472 -3.42887101 -0.61108592 0 0 Z " fill="#E2E2E2" transform="translate(131,138)"/>
<path d="M0 0 C0 0.66 0 1.32 0 2 C0.66 2.33 1.32 2.66 2 3 C3.4375 5.6875 3.4375 5.6875 4 9 C1.75 12.0625 1.75 12.0625 0.3046875 13.5546875 C-1.43299118 15.47966089 -2.09002106 17.59505565 -3 20 C-4.86342722 22.18750152 -6.5644384 23.37629227 -9 25 C-12.68380428 25.26655603 -16.30136581 25.08702669 -20 25 C-20 21.37 -20 17.74 -20 14 C-19.34 13.67 -18.68 13.34 -18 13 C-17.51242967 10.9847093 -17.02746404 8.96859946 -16.57421875 6.9453125 C-15.89156508 4.63264904 -14.94791587 3.41666609 -13 2 C-12.34 2.33 -11.68 2.66 -11 3 C-6.7366263 3 -4.09654764 0 0 0 Z " fill="#CACACA" transform="translate(43,152)"/>
<path d="M0 0 C0.66 0.33 1.32 0.66 2 1 C-0.64 4.3 -3.28 7.6 -6 11 C-5.34 11 -4.68 11 -4 11 C-3.67 10.01 -3.34 9.02 -3 8 C-0.12890625 6.4296875 -0.12890625 6.4296875 3.4375 4.875 C4.61183594 4.35679687 5.78617188 3.83859375 6.99609375 3.3046875 C8.48302734 2.65886719 8.48302734 2.65886719 10 2 C10.66 1.67 11.32 1.34 12 1 C13.76461049 0.74425935 15.53739952 0.54314213 17.3125 0.375 C18.72982422 0.23191406 18.72982422 0.23191406 20.17578125 0.0859375 C22.96908357 0.00094075 25.29425776 0.33958204 28 1 C25.01972133 2.70398621 22.84914789 3.20571036 19.4375 3.3125 C10.1114884 4.10795393 1.18875565 9.14415946 -6 15 C-7.72953111 17.07861079 -8.8729101 18.62932113 -9.75 21.1875 C-11 23 -11 23 -14.625 23.75 C-16.295625 23.87375 -16.295625 23.87375 -18 24 C-16.68 24.66 -15.36 25.32 -14 26 C-21.11360165 27.99820271 -29.04842302 27.51373989 -36 25 C-36.33 24.34 -36.66 23.68 -37 23 C-36.01 22.67 -35.02 22.34 -34 22 C-34.99 21.401875 -35.98 20.80375 -37 20.1875 C-38.485 19.1046875 -38.485 19.1046875 -40 18 C-40 17.01 -40 16.02 -40 15 C-39.01 15 -38.02 15 -37 15 C-35.62131719 16.62935241 -34.28725907 18.29749607 -33 20 C-29.81774461 21.59112769 -27.54194252 21.33732786 -24 21 C-17.8228372 18.55025339 -13.93536087 15.24714783 -10 10 C-8.3540349 8.31288577 -6.68762851 6.6454378 -5 5 C-4.071875 4.071875 -3.14375 3.14375 -2.1875 2.1875 C-1.465625 1.465625 -0.74375 0.74375 0 0 Z " fill="#C5C5C5" transform="translate(104,133)"/>
<path d="M0 0 C0.66 0 1.32 0 2 0 C0.54422667 4.1246911 -1.58218134 7.37327201 -4 11 C-5.8818971 14.57560449 -6.64729506 18.03803496 -6.6015625 22.0625 C-5.5451259 25.46504906 -2.76162212 26.59803277 0.25 28.1875 C0.8275 28.455625 1.405 28.72375 2 29 C1.67 31.31 1.34 33.62 1 36 C-2.27275026 36 -4.846632 35.70074844 -8 35 C-8 33.68 -8 32.36 -8 31 C-8.66 31 -9.32 31 -10 31 C-10.05420701 28.43721301 -10.09377007 25.87558517 -10.125 23.3125 C-10.15013672 22.2306543 -10.15013672 22.2306543 -10.17578125 21.12695312 C-10.22918655 15.27907247 -9.67398718 11.71690993 -5.5625 7.5 C-4.716875 6.675 -3.87125 5.85 -3 5 C-2.443125 4.071875 -1.88625 3.14375 -1.3125 2.1875 C-0.879375 1.465625 -0.44625 0.74375 0 0 Z " fill="#C6C6C6" transform="translate(151,76)"/>
<path d="M0 0 C0.66 0.33 1.32 0.66 2 1 C2.59355614 3.64860427 2.74209269 6.29197322 3 9 C3.66 8.67 4.32 8.34 5 8 C5 8.66 5 9.32 5 10 C5.66 10 6.32 10 7 10 C5.36041242 15.23272633 3.61047965 20.15196636 1 25 C0.34 25 -0.32 25 -1 25 C-1 25.66 -1 26.32 -1 27 C-1.99 27.33 -2.98 27.66 -4 28 C-4.87890625 21.84765625 -4.87890625 21.84765625 -5 20 C-4.67 19.67 -4.34 19.34 -4 19 C-3.76636119 17.15108054 -3.58696365 15.29511969 -3.4375 13.4375 C-3.35371094 12.42558594 -3.26992188 11.41367188 -3.18359375 10.37109375 C-3.12300781 9.58863281 -3.06242187 8.80617188 -3 8 C-2.34 8 -1.68 8 -1 8 C-0.67 5.36 -0.34 2.72 0 0 Z " fill="#CBCBCB" transform="translate(62,112)"/>
<path d="M0 0 C3.08559925 0.7071165 5.99845413 1.68698471 9 2.6875 C8.67 3.3475 8.34 4.0075 8 4.6875 C8.99 4.6875 9.98 4.6875 11 4.6875 C11 6.0075 11 7.3275 11 8.6875 C10.01 8.6875 9.02 8.6875 8 8.6875 C7.67 9.3475 7.34 10.0075 7 10.6875 C6.34 10.6875 5.68 10.6875 5 10.6875 C4.67 11.0175 4.34 11.3475 4 11.6875 C-2.52542373 11.92478814 -2.52542373 11.92478814 -5 10.6875 C-5.4140625 8.62109375 -5.4140625 8.62109375 -5.625 6.125 C-5.69976562 5.29871094 -5.77453125 4.47242188 -5.8515625 3.62109375 C-5.90054688 2.98300781 -5.94953125 2.34492188 -6 1.6875 C-3 -0.3125 -3 -0.3125 0 0 Z " fill="#B6B6B6" transform="translate(168,163.3125)"/>
<path d="M0 0 C0.66 0.33 1.32 0.66 2 1 C1.28972656 1.60328125 0.57945313 2.2065625 -0.15234375 2.828125 C-1.07144531 3.62734375 -1.99054688 4.4265625 -2.9375 5.25 C-3.85402344 6.03890625 -4.77054688 6.8278125 -5.71484375 7.640625 C-7.91526249 9.91251033 -8.66832555 10.92319022 -9 14 C-7.02 13.34 -5.04 12.68 -3 12 C-3.33 11.34 -3.66 10.68 -4 10 C-2.09598862 8.09598862 -0.66574314 7.06479561 2.046875 6.80078125 C4.03233273 6.8113422 6.0169914 6.90084957 8 7 C8 7.66 8 8.32 8 9 C6.02 9.99 6.02 9.99 4 11 C7.63 11 11.26 11 15 11 C15 11.33 15 11.66 15 12 C14.25838623 12.14622803 13.51677246 12.29245605 12.75268555 12.44311523 C9.39722298 13.10589994 6.04235841 13.77166424 2.6875 14.4375 C1.52025391 14.66759766 0.35300781 14.89769531 -0.84960938 15.13476562 C-1.96787109 15.35712891 -3.08613281 15.57949219 -4.23828125 15.80859375 C-5.26993408 16.01282959 -6.30158691 16.21706543 -7.36450195 16.42749023 C-10.08860686 16.96973851 -10.08860686 16.96973851 -13 18 C-13.66 17.67 -14.32 17.34 -15 17 C-16.53668865 16.77532169 -18.07968054 16.59203195 -19.625 16.4375 C-20.44226563 16.35371094 -21.25953125 16.26992187 -22.1015625 16.18359375 C-23.04128906 16.09271484 -23.04128906 16.09271484 -24 16 C-24 15.67 -24 15.34 -24 15 C-22.75283203 14.88785156 -22.75283203 14.88785156 -21.48046875 14.7734375 C-18.21957574 14.37888105 -15.15804015 13.90913277 -12 13 C-10.1915405 10.30128645 -10.1915405 10.30128645 -9 7 C-6.16454376 4.43678865 -3.11677666 2.20853357 0 0 Z " fill="#D1D1D1" transform="translate(105,142)"/>
<path d="M0 0 C0.99 0.66 1.98 1.32 3 2 C2.34 2 1.68 2 1 2 C1.33 3.98 1.66 5.96 2 8 C1.01 7.67 0.02 7.34 -1 7 C-1.12375 7.804375 -1.2475 8.60875 -1.375 9.4375 C-1.58125 10.283125 -1.7875 11.12875 -2 12 C-2.99 12.495 -2.99 12.495 -4 13 C-4 19.27 -4 25.54 -4 32 C-6.31 31.67 -8.62 31.34 -11 31 C-11 28.36 -11 25.72 -11 23 C-10.34 22.67 -9.68 22.34 -9 22 C-8.91113816 18.80097361 -9.08941469 16.07322544 -10 13 C-9.030625 12.690625 -8.06125 12.38125 -7.0625 12.0625 C-3.85054552 10.37918483 -3.85054552 10.37918483 -3.37890625 7.796875 C-3.14627004 5.52061916 -3.00959147 3.28756601 -3 1 C-2.01 0.67 -1.02 0.34 0 0 Z M-7 25 C-6 27 -6 27 -6 27 Z " fill="#D7D7D7" transform="translate(146,116)"/>
<path d="M0 0 C0 0.66 0 1.32 0 2 C0.66 2.33 1.32 2.66 2 3 C2.625 5.5625 2.625 5.5625 3 8 C2.21625 8.45375 1.4325 8.9075 0.625 9.375 C-2.03698031 10.88428742 -2.03698031 10.88428742 -4 13 C-7.69358471 14.52561108 -10.18029984 15.46911544 -14 14 C-14 13.34 -14 12.68 -14 12 C-11.46777927 10.33596924 -8.8357279 8.90873772 -6.1875 7.4375 C-5.1046875 6.7259375 -5.1046875 6.7259375 -4 6 C-4 5.34 -4 4.68 -4 4 C-8.34170523 6.3836813 -12.2064129 8.78119883 -16 12 C-16.36923077 5.47692308 -16.36923077 5.47692308 -14.5 3.0625 C-14.005 2.711875 -13.51 2.36125 -13 2 C-12.34 2.33 -11.68 2.66 -11 3 C-6.7366263 3 -4.09654764 0 0 0 Z " fill="#C1C1C1" transform="translate(43,152)"/>
<path d="M0 0 C-2.98027867 1.70398621 -5.15085211 2.20571036 -8.5625 2.3125 C-20.11510759 3.29786947 -31.30242311 10.55749632 -39 19 C-38.01591356 13.72810836 -35.00626506 10.42736304 -31 7 C-26.78913061 4.67175474 -22.45733184 2.80163483 -18 1 C-17.34 0.67 -16.68 0.34 -16 0 C-10.31747316 -0.97974601 -5.68653352 -0.91390717 0 0 Z " fill="#ADADAD" transform="translate(132,134)"/>
<path d="M0 0 C0.33 0.99 0.66 1.98 1 3 C1.99 3.33 2.98 3.66 4 4 C3.34 4 2.68 4 2 4 C2 4.99 2 5.98 2 7 C2.9590625 7.433125 2.9590625 7.433125 3.9375 7.875 C6 9 6 9 7 11 C6.34 11.66 5.68 12.32 5 13 C4.83322718 16.58343976 4.83322718 16.58343976 5 20 C3.125 19.375 3.125 19.375 1 18 C-0.1875 15 -0.1875 15 -1 12 C-1.33 11.34 -1.66 10.68 -2 10 C-2.33 9.34 -2.66 8.68 -3 8 C-2.34 8 -1.68 8 -1 8 C-0.67 5.36 -0.34 2.72 0 0 Z " fill="#C2C2C2" transform="translate(158,153)"/>
<path d="M0 0 C0.66 0 1.32 0 2 0 C0.54422667 4.1246911 -1.58218134 7.37327201 -4 11 C-5.80515114 14.75547177 -6.22504403 17.6606729 -6.125 21.8125 C-6.10695312 22.78832031 -6.08890625 23.76414062 -6.0703125 24.76953125 C-6.04710937 25.50558594 -6.02390625 26.24164063 -6 27 C-6.66 27 -7.32 27 -8 27 C-8.33 27.99 -8.66 28.98 -9 30 C-9.22295635 27.60472566 -9.42874063 25.20998659 -9.625 22.8125 C-9.68945312 22.13896484 -9.75390625 21.46542969 -9.8203125 20.77148438 C-10.14356355 16.62983033 -9.99193988 13.67284596 -8 10 C-6.3545622 8.31237149 -4.68711423 6.6459651 -3 5 C-2.443125 4.071875 -1.88625 3.14375 -1.3125 2.1875 C-0.879375 1.465625 -0.44625 0.74375 0 0 Z " fill="#B9B9B9" transform="translate(151,76)"/>
<path d="M0 0 C0.99 0 1.98 0 3 0 C3.33 1.98 3.66 3.96 4 6 C3.01 6 2.02 6 1 6 C0.67 4.02 0.34 2.04 0 0 Z M-1 6 C-0.34 6.33 0.32 6.66 1 7 C0.67 7.66 0.34 8.32 0 9 C-0.06996014 10.70702735 -0.08440154 12.41668003 -0.0625 14.125 C-0.05347656 15.03507813 -0.04445312 15.94515625 -0.03515625 16.8828125 C-0.02355469 17.58148438 -0.01195312 18.28015625 0 19 C3.465 18.505 3.465 18.505 7 18 C7 18.99 7 19.98 7 21 C4 22 4 22 1.8125 21.0625 C1.214375 20.711875 0.61625 20.36125 0 20 C0 21.32 0 22.64 0 24 C-0.66 24 -1.32 24 -2 24 C-2.02684312 21.18743719 -2.04676188 18.37512759 -2.0625 15.5625 C-2.07087891 14.76005859 -2.07925781 13.95761719 -2.08789062 13.13085938 C-2.0965143 11.08704779 -2.0522815 9.04316098 -2 7 C-1.67 6.67 -1.34 6.34 -1 6 Z " fill="#9C9C9C" transform="translate(149,124)"/>
<path d="M0 0 C0.33 0 0.66 0 1 0 C1 4.33333333 1 8.66666667 1 13 C0.01 13.33 -0.98 13.66 -2 14 C-2 13.01 -2 12.02 -2 11 C-2.66 11 -3.32 11 -4 11 C-4.66 12.32 -5.32 13.64 -6 15 C-6.33 15 -6.66 15 -7 15 C-7.3877533 11.60715864 -7.22929837 10.31627361 -5.1875 7.5 C-4.465625 6.675 -3.74375 5.85 -3 5 C-2.443125 4.071875 -1.88625 3.14375 -1.3125 2.1875 C-0.879375 1.465625 -0.44625 0.74375 0 0 Z " fill="#B0B0B0" transform="translate(56,97)"/>
<path d="M0 0 C0.33 3.63 0.66 7.26 1 11 C2.98 11 4.96 11 7 11 C7 11.33 7 11.66 7 12 C3.37 12 -0.26 12 -4 12 C-4 8.37 -4 4.74 -4 1 C-2 0 -2 0 0 0 Z " fill="#AAAAAA" transform="translate(27,165)"/>
<path d="M0 0 C0.66 0.33 1.32 0.66 2 1 C2.59355614 3.64860427 2.74209269 6.29197322 3 9 C3.66 8.67 4.32 8.34 5 8 C3.79618552 10.49361571 2.54571278 12.68143083 1 15 C-0.32 14.67 -1.64 14.34 -3 14 C-3 12.02 -3 10.04 -3 8 C-2.34 8 -1.68 8 -1 8 C-0.67 5.36 -0.34 2.72 0 0 Z " fill="#C1C1C1" transform="translate(62,112)"/>
<path d="M0 0 C0.99 0.495 0.99 0.495 2 1 C2.59355614 3.64860427 2.74209269 6.29197322 3 9 C3.66 9 4.32 9 5 9 C5.0825 9.78375 5.165 10.5675 5.25 11.375 C5.72806339 14.14749104 5.72806339 14.14749104 8.0625 15.3125 C8.701875 15.539375 9.34125 15.76625 10 16 C9.67 17.65 9.34 19.3 9 21 C8.34 21 7.68 21 7 21 C0.29612756 7.55125285 0.29612756 7.55125285 0 0 Z " fill="#BCBCBC" transform="translate(128,97)"/>
<path d="M0 0 C0 1.65 0 3.3 0 5 C0.99 5 1.98 5 3 5 C3.33 4.01 3.66 3.02 4 2 C4 4.64 4 7.28 4 10 C1.69 9.67 -0.62 9.34 -3 9 C-3 6.36 -3 3.72 -3 1 C-1 0 -1 0 0 0 Z " fill="#AAAAAA" transform="translate(138,138)"/>
<path d="M0 0 C4.82029598 3.85623679 4.82029598 3.85623679 5.33203125 7.11328125 C5.3145776 9.07856214 5.16596091 11.04166127 5 13 C4.01 13.33 3.02 13.66 2 14 C1.85820312 13.42507812 1.71640625 12.85015625 1.5703125 12.2578125 C1.20492526 10.81127945 0.82592298 9.36807658 0.4296875 7.9296875 C-1.11111111 2.22222222 -1.11111111 2.22222222 0 0 Z " fill="#DFDFDF" transform="translate(152,148)"/>
<path d="M0 0 C1.32 0 2.64 0 4 0 C4 3.63 4 7.26 4 11 C3.01 11 2.02 11 1 11 C0.67 11.66 0.34 12.32 0 13 C-1.0161692 8.37078475 -0.83796731 4.65537393 0 0 Z " fill="#ECECEC" transform="translate(173,134)"/>
<path d="M0 0 C0.33 0.99 0.66 1.98 1 3 C-0.43457328 3.9834496 -1.87277406 4.96160921 -3.3125 5.9375 C-4.11300781 6.48277344 -4.91351563 7.02804688 -5.73828125 7.58984375 C-8 9 -8 9 -11 10 C-9.43989422 5.78771439 -6.5154607 3.65453155 -3 1 C-2.01 0.67 -1.02 0.34 0 0 Z " fill="#E1E1E1" transform="translate(39,155)"/>
<path d="M0 0 C0.33 0.66 0.66 1.32 1 2 C0.04737966 3.48285242 -0.91228405 4.96118201 -1.875 6.4375 C-2.40867187 7.26121094 -2.94234375 8.08492187 -3.4921875 8.93359375 C-5 11 -5 11 -7 12 C-7.66 11.34 -8.32 10.68 -9 10 C-8.01 7.69 -7.02 5.38 -6 3 C-5.67 3.66 -5.34 4.32 -5 5 C-4.34 5 -3.68 5 -3 5 C-2.690625 4.360625 -2.38125 3.72125 -2.0625 3.0625 C-1 1 -1 1 0 0 Z " fill="#E1E1E1" transform="translate(66,122)"/>
<path d="M0 0 C2 1 2 1 4 4 C1.69 5.98 -0.62 7.96 -3 10 C-3.36923077 3.47692308 -3.36923077 3.47692308 -1.5 1.0625 C-1.005 0.711875 -0.51 0.36125 0 0 Z " fill="#B3B3B3" transform="translate(30,154)"/>
<path d="M0 0 C12.21 0 24.42 0 37 0 C37 0.33 37 0.66 37 1 C24.79 1 12.58 1 0 1 C0 0.67 0 0.34 0 0 Z " fill="#D8D8D8" transform="translate(85,166)"/>
<path d="M0 0 C1.953125 0.7109375 1.953125 0.7109375 4 2 C4.609375 4.1640625 4.609375 4.1640625 4.75 6.625 C4.80671875 7.44226563 4.8634375 8.25953125 4.921875 9.1015625 C4.94765625 9.72804687 4.9734375 10.35453125 5 11 C3.68 11.33 2.36 11.66 1 12 C-0.3271261 8.0186217 -0.06915913 4.14954773 0 0 Z M2 9 C3 11 3 11 3 11 Z " fill="#E4E4E4" transform="translate(21,154)"/>
<path d="M0 0 C3 1 3 1 5 2 C5.25 9.625 5.25 9.625 3 13 C2.01 12.67 1.02 12.34 0 12 C0.185625 10.948125 0.37125 9.89625 0.5625 8.8125 C0.95079331 5.42880118 0.88247485 3.23574112 0 0 Z " fill="#E6E6E6" transform="translate(174,152)"/>
<path d="M0 0 C2.08304538 -0.05418326 4.16649768 -0.09287551 6.25 -0.125 C7.99023438 -0.15980469 7.99023438 -0.15980469 9.765625 -0.1953125 C12.82786046 -0.0103949 14.44202751 0.39176977 17 2 C16.67 2.99 16.34 3.98 16 5 C16 4.34 16 3.68 16 3 C14.27185839 2.80327635 12.54240803 2.61803201 10.8125 2.4375 C9.84957031 2.33308594 8.88664062 2.22867188 7.89453125 2.12109375 C5.05766623 2.00241249 2.74576329 2.32234361 0 3 C0 2.01 0 1.02 0 0 Z " fill="#C6C6C6" transform="translate(118,136)"/>
<path d="M0 0 C0.99 0.66 1.98 1.32 3 2 C2.34 2 1.68 2 1 2 C1.33 3.98 1.66 5.96 2 8 C1.01 7.67 0.02 7.34 -1 7 C-1.33 8.65 -1.66 10.3 -2 12 C-2.66 12 -3.32 12 -4 12 C-3.67 8.37 -3.34 4.74 -3 1 C-2.01 0.67 -1.02 0.34 0 0 Z " fill="#AEAEAE" transform="translate(146,116)"/>
<path d="M0 0 C2.475 0.99 2.475 0.99 5 2 C5 4.31 5 6.62 5 9 C3.125 8.375 3.125 8.375 1 7 C-0.25 3.875 -0.25 3.875 -1 1 C-0.67 0.67 -0.34 0.34 0 0 Z " fill="#DEDEDE" transform="translate(158,164)"/>
<path d="M0 0 C0.66 0 1.32 0 2 0 C1.69012383 2.25036286 1.37700182 4.50027894 1.0625 6.75 C0.88847656 8.00296875 0.71445313 9.2559375 0.53515625 10.546875 C0.13950662 13.09982593 -0.30446422 15.5186291 -1 18 C-1.66 18 -2.32 18 -3 18 C-2.34 14.04 -1.68 10.08 -1 6 C-1.99 6.495 -1.99 6.495 -3 7 C-1.125 2.25 -1.125 2.25 0 0 Z " fill="#CCCCCC" transform="translate(78,69)"/>
<path d="M0 0 C0.99 0.33 1.98 0.66 3 1 C2.67 6.61 2.34 12.22 2 18 C1.67 18 1.34 18 1 18 C0.67 12.06 0.34 6.12 0 0 Z " fill="#BEBEBE" transform="translate(53,65)"/>
<path d="M0 0 C2.13671875 0.3984375 2.13671875 0.3984375 4 1 C2.88200014 2.33920838 1.75538103 3.67122556 0.625 5 C-0.00148438 5.7425 -0.62796875 6.485 -1.2734375 7.25 C-2.12808594 8.11625 -2.12808594 8.11625 -3 9 C-3.66 9 -4.32 9 -5 9 C-4.64947365 5.84526281 -4.13480924 4.1766466 -2.1875 1.625 C-1.465625 1.08875 -0.74375 0.5525 0 0 Z " fill="#F1F1F1" transform="translate(43,160)"/>
<path d="M0 0 C1.32 0.33 2.64 0.66 4 1 C3.35494404 4.48330216 2.01782732 7.09432866 0 10 C-0.66 10 -1.32 10 -2 10 C-1.34 6.7 -0.68 3.4 0 0 Z " fill="#B7B7B7" transform="translate(47,141)"/>
<path d="M0 0 C-3.40351338 2.03219488 -6.3232927 2.36891039 -10.25 2.625 C-11.86648437 2.73714844 -11.86648437 2.73714844 -13.515625 2.8515625 C-14.33546875 2.90054688 -15.1553125 2.94953125 -16 3 C-11.23280357 -2.08136697 -6.42934591 -0.98074768 0 0 Z " fill="#A6A6A6" transform="translate(132,134)"/>
<path d="M0 0 C0.99 0.66 1.98 1.32 3 2 C2.34 4.97 1.68 7.94 1 11 C0.34 11 -0.32 11 -1 11 C-1.33 8.69 -1.66 6.38 -2 4 C-1.34 4 -0.68 4 0 4 C0 2.68 0 1.36 0 0 Z " fill="#CCCCCC" transform="translate(60,109)"/>
<path d="M0 0 C0.66 0.33 1.32 0.66 2 1 C0.40423801 2.50893816 -1.20189911 4.00691076 -2.8125 5.5 C-3.70582031 6.3353125 -4.59914063 7.170625 -5.51953125 8.03125 C-8 10 -8 10 -11 10 C-7.65996398 5.67760044 -4.67248931 2.82522609 0 0 Z " fill="#C6C6C6" transform="translate(105,142)"/>
<path d="M0 0 C1.65 0 3.3 0 5 0 C5.33 1.98 5.66 3.96 6 6 C4.35 6 2.7 6 1 6 C0.4465236 3.92446352 0 2.15634036 0 0 Z " fill="#E7E7E7" transform="translate(143,111)"/>
<path d="M0 0 C0.66 0.33 1.32 0.66 2 1 C2 5.95 2 10.9 2 16 C1.67 16 1.34 16 1 16 C0.67 13.36 0.34 10.72 0 8 C-0.33 8 -0.66 8 -1 8 C-0.67 5.36 -0.34 2.72 0 0 Z " fill="#F4F4F4" transform="translate(26,117)"/>
<path d="M0 0 C0 0.66 0 1.32 0 2 C0.66 2.33 1.32 2.66 2 3 C-0.475 4.485 -0.475 4.485 -3 6 C-3.33 5.34 -3.66 4.68 -4 4 C-5.65 4.66 -7.3 5.32 -9 6 C-8 3 -8 3 -5.0625 1.3125 C-2 0 -2 0 0 0 Z " fill="#CCCCCC" transform="translate(43,152)"/>
<path d="M0 0 C-0.66 2.31 -1.32 4.62 -2 7 C-2.33 6.34 -2.66 5.68 -3 5 C-3.99 5.33 -4.98 5.66 -6 6 C-5.625 3.5625 -5.625 3.5625 -5 1 C-3 0 -3 0 0 0 Z " fill="#D0D0D0" transform="translate(142,127)"/>
<path d="M0 0 C0.99 0 1.98 0 3 0 C3.33 1.98 3.66 3.96 4 6 C3.01 6 2.02 6 1 6 C0.67 4.02 0.34 2.04 0 0 Z M-1 6 C-0.34 6.33 0.32 6.66 1 7 C0.34 7.66 -0.32 8.32 -1 9 C-1 8.01 -1 7.02 -1 6 Z " fill="#B2B2B2" transform="translate(149,124)"/>
<path d="M0 0 C0.33 0 0.66 0 1 0 C1.33 1.65 1.66 3.3 2 5 C2.66 4.67 3.32 4.34 4 4 C2.79618552 6.49361571 1.54571278 8.68143083 0 11 C-0.66 11 -1.32 11 -2 11 C-1.34 7.37 -0.68 3.74 0 0 Z " fill="#B8B8B8" transform="translate(63,116)"/>
<path d="M0 0 C0.66 0 1.32 0 2 0 C2.33 2.31 2.66 4.62 3 7 C0.03 6.505 0.03 6.505 -3 6 C-2 4 -1 2 0 0 Z " fill="#BEBEBE" transform="translate(54,84)"/>
<path d="M0 0 C4.875 2.75 4.875 2.75 6 5 C3.69 4.67 1.38 4.34 -1 4 C-1 1 -1 1 0 0 Z " fill="#DEDEDE" transform="translate(65,151)"/>
<path d="M0 0 C2.31 0 4.62 0 7 0 C6.67 0.99 6.34 1.98 6 3 C4.02 3 2.04 3 0 3 C0 2.01 0 1.02 0 0 Z " fill="#ADADAD" transform="translate(165,172)"/>
<path d="M0 0 C0.99 0.33 1.98 0.66 3 1 C3.125 3.875 3.125 3.875 3 7 C2.34 7.66 1.68 8.32 1 9 C0.67 6.03 0.34 3.06 0 0 Z " fill="#EDEDED" transform="translate(46,151)"/>
<path d="M0 0 C0.66 0 1.32 0 2 0 C0.52307692 5.66153846 0.52307692 5.66153846 -2.125 7.375 C-3.053125 7.684375 -3.053125 7.684375 -4 8 C-2.66666667 5.33333333 -1.33333333 2.66666667 0 0 Z " fill="#D2D2D2" transform="translate(67,122)"/>
<path d="M0 0 C0.66 0 1.32 0 2 0 C0.4169423 4.2742558 -2.50568404 6.26531794 -6 9 C-4.4722133 5.56247993 -2.49818944 2.81046312 0 0 Z " fill="#C3C3C3" transform="translate(158,75)"/>
<path d="M0 0 C0.66 0 1.32 0 2 0 C2 1.32 2 2.64 2 4 C2.66 4 3.32 4 4 4 C3.34 5.65 2.68 7.3 2 9 C1.67 9 1.34 9 1 9 C0.67 6.03 0.34 3.06 0 0 Z " fill="#EBEBEB" transform="translate(24,144)"/>
<path d="M0 0 C1.32 0 2.64 0 4 0 C3.75 1.875 3.75 1.875 3 4 C0.9375 5.25 0.9375 5.25 -1 6 C-1.33 5.01 -1.66 4.02 -2 3 C-1.01 3 -0.02 3 1 3 C1.33 2.34 1.66 1.68 2 1 C1.34 0.67 0.68 0.34 0 0 Z " fill="#F1F1F1" transform="translate(82,28)"/>
<path d="M0 0 C0.99 0 1.98 0 3 0 C5.1875 3 5.1875 3 7 6 C2.25 4.125 2.25 4.125 0 3 C0 2.01 0 1.02 0 0 Z " fill="#BEBEBE" transform="translate(64,148)"/>
<path d="M0 0 C2.62386487 3.06117568 3 3.73173127 3 8 C2.34 8 1.68 8 1 8 C0.26919734 6.02253397 -0.39421747 4.01927511 -1 2 C-0.67 1.34 -0.34 0.68 0 0 Z " fill="#E8E8E8" transform="translate(152,148)"/>
<path d="M0 0 C0.99 0.33 1.98 0.66 3 1 C1.8125 2.5 1.8125 2.5 0 4 C-2.6875 4.1875 -2.6875 4.1875 -5 4 C-2.6875 1.9375 -2.6875 1.9375 0 0 Z " fill="#CBCBCB" transform="translate(85,151)"/>
<path d="M0 0 C0.66 0.33 1.32 0.66 2 1 C1.67 2.65 1.34 4.3 1 6 C0.01 5.67 -0.98 5.34 -2 5 C-1.125 1.125 -1.125 1.125 0 0 Z " fill="#B2B2B2" transform="translate(53,115)"/>
<path d="M0 0 C1.76462683 3.08809695 2 4.23312136 2 8 C0 8 0 8 -1.625 6.5 C-2.07875 6.005 -2.5325 5.51 -3 5 C-2.67 4.34 -2.34 3.68 -2 3 C-1.34 3.33 -0.68 3.66 0 4 C0 2.68 0 1.36 0 0 Z " fill="#E7E7E7" transform="translate(58,105)"/>
<path d="M0 0 C0.33 0 0.66 0 1 0 C1 2.64 1 5.28 1 8 C0.67 8 0.34 8 0 8 C0 5.36 0 2.72 0 0 Z " fill="#E4E4E4" transform="translate(142,129)"/>
<path d="M0 0 C0.33 0 0.66 0 1 0 C1 1.65 1 3.3 1 5 C0.67 5 0.34 5 0 5 C0 3.35 0 1.7 0 0 Z " fill="#000000" transform="translate(179,128)"/>
<path d="M0 0 C0.33 1.32 0.66 2.64 1 4 C0.34 3.34 -0.32 2.68 -1 2 C-0.67 1.34 -0.34 0.68 0 0 Z " fill="#626262" transform="translate(154,46)"/>
<path d="" fill="#CECECE" transform="translate(0,0)"/>
<path d="M0 0 C2 1 2 1 2 1 Z " fill="#B3B3B3" transform="translate(39,57)"/>
<path d="M0 0 C2 1 2 1 2 1 Z " fill="#F4F4F4" transform="translate(149,45)"/>
<path d="" fill="#F5F5F5" transform="translate(0,0)"/>
<path d="" fill="#ECECEC" transform="translate(0,0)"/>
<path d="" fill="#FDFDFD" transform="translate(0,0)"/>
<path d="" fill="#040404" transform="translate(0,0)"/>
<path d="" fill="#F4F4F4" transform="translate(0,0)"/>
<path d="" fill="#B1B1B1" transform="translate(0,0)"/>
<path d="" fill="#727272" transform="translate(0,0)"/>
</svg>
